<?xml version="1.0" encoding="utf-8"?>
<!-- Svg Vector Icons : http://www.onlinewebfonts.com/icon -->
<!DOCTYPE svg PUBLIC "-//W3C//DTD SVG 1.1//EN" "http://www.w3.org/Graphics/SVG/1.1/DTD/svg11.dtd">
<svg version="1.1" xmlns="http://www.w3.org/2000/svg" xmlns:xlink="http://www.w3.org/1999/xlink" x="0px" y="0px" viewBox="0 0 256 256" enable-background="new 0 0 256 256" xml:space="preserve">
<metadata> Svg Vector Icons : http://www.onlinewebfonts.com/icon </metadata>
<g><g><g><path fill="#ffffff" d="M117.8,25.1c-31.5,3-61.2,16.4-81.6,36.7c-9.8,9.8-16.2,19.8-19,30c-1.2,4.3-1.4,11.9-0.5,16.1l0.8,3.5l-1.6,1.7c-0.9,1-2.3,2.9-3,4.3c-6,11.2-2.8,24.6,7.4,31.4c4,2.7,7.1,3.7,13.9,4.5c3.9,0.4,6.7,1,7.8,1.6c1,0.5,4.3,3.4,7.3,6.4c4.7,4.7,6.1,5.8,9.3,7.4c8.5,4.1,15.1,3.6,26.5-2c7.2-3.6,10.9-4.6,14.7-4.2c3.4,0.3,4.3,0.9,9.1,4.8c12.8,10.9,25.1,10.8,38.3-0.2c7.3-6.1,11.7-6.3,22.5-0.9c9.2,4.7,15.2,6,21.5,4.7c5.6-1.2,9.3-3.5,15.5-9.6c3-3,6.2-5.9,7.2-6.3c1.2-0.6,3.9-1.2,7.8-1.6c6.8-0.8,9.9-1.8,13.9-4.5c10.4-7,13.4-21,7-32.2c-0.8-1.3-1.7-2.5-2-2.7c-0.4-0.2-0.3-1,0.6-3.6c6.1-17.9-7.1-42.2-32.9-60.6c-17.8-12.7-38.8-21-61.3-24.1C140.6,24.9,124,24.6,117.8,25.1z M109.6,47.3c1.4,1.4,1,5.4-1.1,9.5c-1.3,2.6-1.8,3.3-3.6,4.2c-2.5,1.3-3.8,1.3-6.2,0.1c-3.5-1.7-4.9-5.8-3.1-9.2c1-2,2.3-3,5.9-4.4C105,46,108.2,46,109.6,47.3z M160.3,47.6c1.3,1.7,1.1,4.5-0.7,8.5c-1.4,3.2-3.7,5.3-6,5.8c-2.3,0.4-5.5-0.9-6.7-2.7c-1.3-1.8-1.7-5.3-0.7-7.2c1.5-2.9,6.7-5.6,11-5.6C159,46.4,159.5,46.6,160.3,47.6z M83.8,73.7c1,0.7,1.2,1.3,1.2,3c0,2.4-1.5,6.8-3.1,8.9c-4.4,5.9-13.8,2-12.4-5.2c0.6-3,3.6-5.5,8.4-7C80.6,72.5,82.4,72.6,83.8,73.7z M134.8,73.9c1.1,1.1,1.2,1.4,0.9,3.8c-0.4,3.5-2.8,8.3-4.9,9.7c-4.3,2.9-10.7-0.4-10.7-5.5c0-3.9,2.4-6.5,7.7-8.2C131.7,72.4,133.4,72.5,134.8,73.9z M185.5,73.9c0.7,0.6,1.2,1.7,1.2,2.4c0,2-1.7,7-3,8.9c-3.9,5.7-12.8,3.2-12.8-3.7c0-3.7,1.9-5.8,7.1-7.8C181.9,72.4,184.1,72.4,185.5,73.9z M30.5,126.6c6.4,4.3,17.3,8.4,28.9,10.7c18.7,3.8,37.1,5.1,69.8,5.1c20.7,0,32.4-0.4,45.7-1.6c27.7-2.5,48.1-8.7,57.4-17.5l1.5-1.4l0.8,1.8c0.4,1,0.9,3.2,1,4.9c0.1,2.5,0,3.5-0.9,5.5c-2.7,6-6,7.9-15,8.9c-9.6,1.1-11.6,2.2-20,10.6c-6,5.9-8.5,7.3-13.1,7.3c-3.4,0-5.4-0.6-11.4-3.7c-8.5-4.3-10.7-4.9-17.8-4.9h-6l-3.5,1.7c-1.8,1-5,3.1-6.9,4.8s-4.8,3.7-6.5,4.5c-2.6,1.2-3.5,1.5-6.5,1.5c-3,0-3.9-0.2-6.5-1.5c-1.7-0.8-4.3-2.7-6-4.1c-6.3-5.5-10.3-7.1-17-7.1c-5.4,0-9.5,1.2-16.9,4.9c-7,3.5-9.4,4.1-13.3,3.8c-4.2-0.4-6.3-1.7-12.6-7.8c-8.1-7.9-9.9-8.9-19.3-10c-6.6-0.7-8.9-1.5-11.6-3.8c-2.4-2.1-4.5-6.5-4.5-9.5c0-2.7,0.9-6.1,2.1-7.9l0.7-1.2l2.6,2.3C27.2,124.2,29.3,125.9,30.5,126.6z"/><path fill="#ffffff" d="M235,161.1c-3.5,1.3-6.9,2.1-12,2.7l-4.6,0.5l-4.4,4.6c-9.2,9.4-16.7,12.9-27.5,13c-6.1,0-11.8-1.6-20.1-5.5c-4.1-2-7.3-3.2-8.2-3.2c-1.2,0-2.4,0.7-5.2,3c-5,4-9.1,6.4-14.4,8.2c-4.1,1.4-4.8,1.5-10.6,1.5c-5.8,0-6.5-0.1-10.6-1.5c-5.2-1.8-9.4-4.2-14.3-8.2c-2.9-2.3-4-3-5.2-3c-0.9,0-4.1,1.2-8.2,3.2c-8.1,3.9-12.2,5.1-18.3,5.5c-11.3,0.6-19.6-3-29-12.6l-4.7-4.8l-4.6-0.5c-4.1-0.5-6.7-1-10.8-2.1c-1.1-0.3-1.1-0.3-0.8,2.1c2.5,18.9,26.8,28.1,81.1,30.5c13.3,0.6,53.5,0.3,64-0.5c32.3-2.4,51.2-7.1,61.7-15.2c5.1-4,7.8-8.2,8.8-14C237.8,160.1,237.7,159.9,235,161.1z"/><path fill="#ffffff" d="M16.9,184.5c-3.2,14.2,3.3,26.1,18.5,33.7c18.7,9.4,52.7,13.6,102.5,12.9c25.3-0.4,39.6-1.4,55-4c21-3.6,34.7-9.2,42.5-17.7c4.5-4.8,6.6-9.5,7-15.9c0.3-3.6-0.3-8.6-1.3-11.1l-0.5-1.2l-3.1,3c-9.5,9.1-25.5,14.9-50.6,18.2c-26.6,3.4-76.6,3.8-107.1,0.9c-29.6-2.8-48.9-9.1-59.5-19.4c-1.4-1.4-2.7-2.5-2.7-2.5C17.7,181.3,17.3,182.7,16.9,184.5z"/></g></g></g>
</svg>