<svg id="visual" viewBox="0 0 900 150" width="900" height="150" xmlns="http://www.w3.org/2000/svg" xmlns:xlink="http://www.w3.org/1999/xlink" version="1.1">
    <rect x="0" y="0" width="900" height="200" fill="#FFFFFF"></rect>
    <path d="M0 35L21.5 41.7C43 48.3 86 61.7 128.8 70.5C171.7 79.3 214.3 83.7 257.2 84.7C300 85.7 343 83.3 385.8 74.5C428.7 65.7 471.3 50.3 514.2 50.2C557 50 600 65 642.8 72.7C685.7 80.3 728.3 80.7 771.2 73C814 65.3 857 49.7 878.5 41.8L900 34L900 0L878.5 0C857 0 814 0 771.2 0C728.3 0 685.7 0 642.8 0C600 0 557 0 514.2 0C471.3 0 428.7 0 385.8 0C343 0 300 0 257.2 0C214.3 0 171.7 0 128.8 0C86 0 43 0 21.5 0L0 0Z" fill="#FDBA74" stroke-linecap="round" stroke-linejoin="miter"></path>
</svg>